<svg width="24" height="24" viewBox="0 0 24 24" fill="none" xmlns="http://www.w3.org/2000/svg">
<g clip-path="url(#clip0_179_1038)">
<path d="M14.5934 2.66663H5.22004C4.88996 2.67536 4.57666 2.81401 4.34822 3.05244C4.11978 3.29086 3.99466 3.6098 4.00004 3.93996V20.06C3.99466 20.3901 4.11978 20.7091 4.34822 20.9475C4.57666 21.1859 4.88996 21.3246 5.22004 21.3333H18.78C19.1101 21.3246 19.4234 21.1859 19.6519 20.9475C19.8803 20.7091 20.0054 20.3901 20 20.06V7.94663L14.5934 2.66663ZM14.3934 4.32663L18.3934 8.25996H14.3934V4.32663ZM5.33338 20V3.99996H13.3334V9.33329H18.6667V20H5.33338Z" fill="black"/>
</g>
<defs>
<clipPath id="clip0_179_1038">
<rect width="24" height="24" fill="white"/>
</clipPath>
</defs>
</svg>
