<svg width="24" height="24" viewBox="0 0 24 24" fill="none" xmlns="http://www.w3.org/2000/svg">
<path d="M4.616 19C4.15533 19 3.771 18.846 3.463 18.538C3.155 18.23 3.00067 17.8453 3 17.384V6.616C3 6.15533 3.15433 5.771 3.463 5.463C3.77167 5.155 4.15567 5.00067 4.615 5H9.596L11.596 7H19.385C19.845 7 20.2293 7.15433 20.538 7.463C20.8467 7.77167 21.0007 8.156 21 8.616V10.973C20.8373 10.917 20.6717 10.881 20.503 10.865C20.3343 10.849 20.1667 10.8467 20 10.858V8.616C20 8.462 19.936 8.32067 19.808 8.192C19.68 8.06333 19.539 7.99933 19.385 8H11.195L9.195 6H4.615C4.43567 6 4.28833 6.05767 4.173 6.173C4.05767 6.28833 4 6.436 4 6.616V17.385C4 17.5383 4.064 17.6793 4.192 17.808C4.32 17.9367 4.461 18.0007 4.615 18H11.869L11.846 18.023V19H4.616ZM14.231 21V18.79L19.564 13.483C19.6627 13.3843 19.765 13.3177 19.871 13.283C19.9777 13.2483 20.0843 13.231 20.191 13.231C20.301 13.231 20.4123 13.2523 20.525 13.295C20.6383 13.3383 20.7377 13.403 20.823 13.489L21.748 14.433C21.83 14.5317 21.8923 14.6343 21.935 14.741C21.9783 14.847 22 14.9533 22 15.06C22 15.1667 21.9797 15.274 21.939 15.382C21.8983 15.49 21.8347 15.5933 21.748 15.692L16.44 21H14.231ZM15.116 20.116H16.066L19.533 16.642L19.063 16.167L18.608 15.679L15.116 19.165V20.116ZM19.063 16.167L18.608 15.679L19.533 16.642L19.063 16.167Z" fill="black"/>
</svg>
