<svg width="24" height="24" viewBox="0 0 24 24" fill="none" xmlns="http://www.w3.org/2000/svg">
<path d="M14.23 21V18.79L19.564 13.483C19.6627 13.3963 19.765 13.333 19.871 13.293C19.9777 13.2517 20.0843 13.231 20.191 13.231C20.301 13.231 20.4123 13.2523 20.525 13.295C20.6383 13.3383 20.7377 13.403 20.823 13.489L21.748 14.433C21.83 14.5317 21.8923 14.6343 21.935 14.741C21.9783 14.847 22 14.9533 22 15.06C22 15.1667 21.9827 15.274 21.948 15.382C21.9133 15.49 21.8467 15.5933 21.748 15.692L16.44 21H14.23ZM20.19 16.015L21.115 15.059L20.191 14.116L19.241 15.066L20.19 16.015ZM4.617 19C4.15633 19 3.772 18.846 3.464 18.538C3.156 18.23 3.00133 17.8453 3 17.384V6.616C3 6.15533 3.15433 5.771 3.463 5.463C3.77167 5.155 4.15567 5.00067 4.615 5H9.596L11.596 7H19.385C19.845 7 20.2293 7.15433 20.538 7.463C20.8467 7.77167 21.0007 8.156 21 8.616V10.973C20.8567 10.9243 20.711 10.891 20.563 10.873C20.4163 10.855 20.269 10.846 20.121 10.846C19.7443 10.846 19.3743 10.9167 19.011 11.058C18.6477 11.1987 18.312 11.4037 18.004 11.673L11.846 17.793V19H4.617Z" fill="#630A45"/>
</svg>
