<svg width="24" height="24" viewBox="0 0 24 24" fill="none" xmlns="http://www.w3.org/2000/svg">
<path fill-rule="evenodd" clip-rule="evenodd" d="M1.06897 11.636C2.80297 7.194 6.88397 4 12 4C17.116 4 21.197 7.194 22.932 11.636C23.0234 11.87 23.0234 12.13 22.932 12.364C21.197 16.806 17.116 20 12 20C6.88397 20 2.80297 16.806 1.06897 12.364C0.977499 12.13 0.977499 11.87 1.06897 11.636ZM12 15C12.7956 15 13.5587 14.6839 14.1213 14.1213C14.6839 13.5587 15 12.7956 15 12C15 11.2044 14.6839 10.4413 14.1213 9.87868C13.5587 9.31607 12.7956 9 12 9C11.2043 9 10.4413 9.31607 9.87865 9.87868C9.31604 10.4413 8.99997 11.2044 8.99997 12C8.99997 12.7956 9.31604 13.5587 9.87865 14.1213C10.4413 14.6839 11.2043 15 12 15Z" fill="#630A45"/>
</svg>
