<svg width="24" height="24" viewBox="0 0 24 24" fill="none" xmlns="http://www.w3.org/2000/svg">
<path d="M5.52002 20.596V15.46C5.52002 15.1906 5.58302 14.9346 5.70902 14.692C5.83502 14.45 6.01402 14.2566 6.24602 14.112L7.44202 13.329C7.55869 14.4983 7.71002 15.5103 7.89602 16.365C8.08202 17.2196 8.38402 18.1896 8.80202 19.275L5.52002 20.596ZM9.57102 18.808C9.16769 17.7846 8.85635 16.7366 8.63702 15.664C8.41769 14.5913 8.30769 13.499 8.30702 12.387C8.30702 10.6236 8.60769 9.00398 9.20902 7.52798C9.80902 6.05198 10.7394 4.74264 12 3.59998C13.26 4.74264 14.1904 6.05198 14.791 7.52798C15.3917 9.00398 15.692 10.6236 15.692 12.387C15.692 13.4943 15.5824 14.5836 15.363 15.655C15.1444 16.7263 14.833 17.7773 14.429 18.808H9.57102ZM12 12.5C12.422 12.5 12.7774 12.3553 13.066 12.066C13.3554 11.7773 13.5 11.422 13.5 11C13.5 10.578 13.3554 10.2226 13.066 9.93398C12.7767 9.64531 12.4214 9.50064 12 9.49998C11.5787 9.49931 11.2234 9.64398 10.934 9.93398C10.6447 10.2226 10.5 10.578 10.5 11C10.5 11.422 10.6447 11.7773 10.934 12.066C11.2234 12.3546 11.5787 12.4993 12 12.5ZM18.462 20.596L15.179 19.294C15.597 18.2093 15.899 17.2363 16.085 16.375C16.271 15.5136 16.4224 14.4983 16.539 13.329L17.735 14.131C17.967 14.2756 18.146 14.469 18.272 14.711C18.3987 14.9536 18.462 15.2096 18.462 15.479V20.596Z" fill="#630A45"/>
</svg>
