<svg width="24" height="24" viewBox="0 0 24 24" fill="none" xmlns="http://www.w3.org/2000/svg">
<path d="M6.52004 19.127L8.99404 18.116C8.77604 17.466 8.58971 16.8043 8.43504 16.131C8.28104 15.4577 8.16871 14.775 8.09804 14.083L6.78804 14.959C6.69871 15.0237 6.63138 15.0977 6.58604 15.181C6.54071 15.2643 6.51838 15.357 6.51904 15.459L6.52004 19.127ZM10 18H14C14.3 17.1927 14.5417 16.3097 14.725 15.351C14.9084 14.3923 15 13.394 15 12.356C15 10.8467 14.77 9.45701 14.31 8.18701C13.85 6.91701 13.08 5.69034 12 4.50701C10.92 5.69168 10.15 6.91868 9.69004 8.18801C9.23004 9.45734 9.00004 10.847 9.00004 12.357C9.00004 13.3957 9.09171 14.394 9.27504 15.352C9.45838 16.31 9.70004 17.1927 10 18ZM12 12.5C11.578 12.5 11.2227 12.3553 10.934 12.066C10.6447 11.7773 10.5 11.422 10.5 11C10.5 10.578 10.6447 10.2227 10.934 9.93401C11.2234 9.64534 11.5787 9.50068 12 9.50001C12.4214 9.49934 12.7767 9.64401 13.066 9.93401C13.3554 10.2227 13.5 10.578 13.5 11C13.5 11.422 13.3554 11.7773 13.066 12.066C12.7767 12.3547 12.4214 12.4993 12 12.5ZM17.48 19.127V15.479C17.48 15.3763 17.458 15.2803 17.414 15.191C17.3687 15.101 17.301 15.0237 17.211 14.959L15.902 14.083C15.8314 14.775 15.7027 15.525 15.516 16.333C15.3294 17.141 15.1594 17.7417 15.006 18.135L17.48 19.127ZM12 3.18701C13.3807 4.41235 14.3924 5.79301 15.035 7.32901C15.6784 8.86501 16 10.576 16 12.462C16 12.5387 16.0034 12.6187 16.01 12.702C16.0167 12.7853 16.0134 12.872 16 12.962L17.735 14.131C17.967 14.2757 18.1494 14.469 18.282 14.711C18.4147 14.953 18.481 15.209 18.481 15.479V20.596L14.506 19H9.47504L5.51904 20.596V15.46C5.51904 15.1907 5.58238 14.9347 5.70904 14.692C5.83504 14.45 6.01404 14.2567 6.24604 14.112L8.00004 12.942V12.462C8.00004 10.5753 8.32171 8.86435 8.96504 7.32901C9.60771 5.79301 10.6194 4.41235 12 3.18701Z" fill="black"/>
</svg>
