<svg width="119" height="28" viewBox="0 0 119 28" fill="none" xmlns="http://www.w3.org/2000/svg">
<rect x="1" y="1" width="117" height="26" rx="4" fill="#D8F4D1" stroke="#C7E1C1" stroke-width="2"/>
<path d="M13.3074 19H11.3386L14.9231 8.81818H17.2001L20.7896 19H18.8209L16.1014 10.9062H16.0219L13.3074 19ZM13.372 15.0078H18.7413V16.4893H13.372V15.0078ZM22.3312 21.8636V11.3636H24.101V12.6264H24.2055C24.2983 12.4408 24.4292 12.2436 24.5982 12.0348C24.7672 11.8227 24.9959 11.642 25.2843 11.4929C25.5726 11.3404 25.9405 11.2642 26.388 11.2642C26.9779 11.2642 27.5099 11.415 27.9839 11.7166C28.4611 12.0149 28.839 12.4574 29.1174 13.044C29.3991 13.6274 29.54 14.3433 29.54 15.1918C29.54 16.0303 29.4024 16.7429 29.1273 17.3295C28.8522 17.9162 28.4777 18.3636 28.0037 18.6719C27.5298 18.9801 26.9929 19.1342 26.393 19.1342C25.9555 19.1342 25.5925 19.0613 25.3042 18.9155C25.0158 18.7696 24.7838 18.594 24.6081 18.3885C24.4358 18.1797 24.3016 17.9825 24.2055 17.7969H24.1309V21.8636H22.3312ZM24.0961 15.1818C24.0961 15.6757 24.1657 16.1082 24.3049 16.4794C24.4474 16.8506 24.6512 17.1406 24.9164 17.3494C25.1849 17.5549 25.5097 17.6577 25.8908 17.6577C26.2885 17.6577 26.6216 17.5516 26.8901 17.3395C27.1586 17.1241 27.3608 16.8307 27.4966 16.4595C27.6358 16.085 27.7055 15.6591 27.7055 15.1818C27.7055 14.7079 27.6375 14.2869 27.5016 13.919C27.3657 13.5511 27.1635 13.2628 26.8951 13.054C26.6266 12.8452 26.2919 12.7408 25.8908 12.7408C25.5063 12.7408 25.1799 12.8419 24.9114 13.044C24.643 13.2462 24.4391 13.5296 24.2999 13.8942C24.164 14.2588 24.0961 14.688 24.0961 15.1818ZM31.3612 21.8636V11.3636H33.131V12.6264H33.2355C33.3283 12.4408 33.4592 12.2436 33.6282 12.0348C33.7972 11.8227 34.0259 11.642 34.3143 11.4929C34.6026 11.3404 34.9705 11.2642 35.418 11.2642C36.0079 11.2642 36.5399 11.415 37.0139 11.7166C37.4911 12.0149 37.869 12.4574 38.1474 13.044C38.4291 13.6274 38.57 14.3433 38.57 15.1918C38.57 16.0303 38.4324 16.7429 38.1573 17.3295C37.8822 17.9162 37.5077 18.3636 37.0337 18.6719C36.5598 18.9801 36.0229 19.1342 35.423 19.1342C34.9855 19.1342 34.6225 19.0613 34.3342 18.9155C34.0458 18.7696 33.8138 18.594 33.6381 18.3885C33.4658 18.1797 33.3316 17.9825 33.2355 17.7969H33.1609V21.8636H31.3612ZM33.1261 15.1818C33.1261 15.6757 33.1957 16.1082 33.3349 16.4794C33.4774 16.8506 33.6812 17.1406 33.9464 17.3494C34.2149 17.5549 34.5397 17.6577 34.9208 17.6577C35.3185 17.6577 35.6516 17.5516 35.9201 17.3395C36.1886 17.1241 36.3908 16.8307 36.5266 16.4595C36.6658 16.085 36.7355 15.6591 36.7355 15.1818C36.7355 14.7079 36.6675 14.2869 36.5316 13.919C36.3957 13.5511 36.1935 13.2628 35.9251 13.054C35.6566 12.8452 35.3219 12.7408 34.9208 12.7408C34.5364 12.7408 34.2099 12.8419 33.9414 13.044C33.673 13.2462 33.4691 13.5296 33.3299 13.8942C33.194 14.2588 33.1261 14.688 33.1261 15.1818ZM40.3912 19V11.3636H42.1362V12.6364H42.2157C42.3549 12.1955 42.5936 11.8558 42.9316 11.6172C43.273 11.3752 43.6625 11.2543 44.1 11.2543C44.1994 11.2543 44.3104 11.2592 44.4331 11.2692C44.559 11.2758 44.6634 11.2874 44.7463 11.304V12.9595C44.67 12.933 44.5491 12.9098 44.3833 12.8899C44.2209 12.8667 44.0635 12.8551 43.911 12.8551C43.5829 12.8551 43.2879 12.9264 43.0261 13.0689C42.7676 13.2081 42.5637 13.402 42.4146 13.6506C42.2655 13.8991 42.1909 14.1858 42.1909 14.5107V19H40.3912ZM49.2385 19.1491C48.4927 19.1491 47.8464 18.9851 47.2995 18.657C46.7527 18.3288 46.3284 17.8698 46.0268 17.2798C45.7285 16.6899 45.5794 16.0005 45.5794 15.2116C45.5794 14.4228 45.7285 13.7318 46.0268 13.1385C46.3284 12.5452 46.7527 12.0845 47.2995 11.7564C47.8464 11.4283 48.4927 11.2642 49.2385 11.2642C49.9842 11.2642 50.6305 11.4283 51.1774 11.7564C51.7243 12.0845 52.1468 12.5452 52.4451 13.1385C52.7467 13.7318 52.8975 14.4228 52.8975 15.2116C52.8975 16.0005 52.7467 16.6899 52.4451 17.2798C52.1468 17.8698 51.7243 18.3288 51.1774 18.657C50.6305 18.9851 49.9842 19.1491 49.2385 19.1491ZM49.2484 17.7074C49.6528 17.7074 49.9908 17.5964 50.2626 17.3743C50.5344 17.1489 50.7366 16.8473 50.8691 16.4695C51.005 16.0916 51.073 15.6707 51.073 15.2067C51.073 14.7393 51.005 14.3168 50.8691 13.9389C50.7366 13.5578 50.5344 13.2545 50.2626 13.0291C49.9908 12.8037 49.6528 12.6911 49.2484 12.6911C48.8341 12.6911 48.4894 12.8037 48.2143 13.0291C47.9425 13.2545 47.7387 13.5578 47.6028 13.9389C47.4702 14.3168 47.4039 14.7393 47.4039 15.2067C47.4039 15.6707 47.4702 16.0916 47.6028 16.4695C47.7387 16.8473 47.9425 17.1489 48.2143 17.3743C48.4894 17.5964 48.8341 17.7074 49.2484 17.7074ZM61.2663 11.3636L58.5469 19H56.5582L53.8388 11.3636H55.7578L57.5128 17.0362H57.5923L59.3523 11.3636H61.2663ZM65.9126 19.1491C65.147 19.1491 64.4858 18.9901 63.929 18.6719C63.3755 18.3504 62.9496 17.8963 62.6513 17.3097C62.353 16.7197 62.2038 16.0253 62.2038 15.2266C62.2038 14.4411 62.353 13.7517 62.6513 13.1584C62.9529 12.5618 63.3738 12.0978 63.914 11.7663C64.4543 11.4316 65.089 11.2642 65.8182 11.2642C66.2888 11.2642 66.7329 11.3404 67.1506 11.4929C67.5715 11.642 67.9427 11.8741 68.2642 12.1889C68.589 12.5038 68.8442 12.9048 69.0298 13.392C69.2154 13.8759 69.3082 14.4527 69.3082 15.1222V15.674H63.049V14.4609H67.5831C67.5798 14.1162 67.5052 13.8097 67.3594 13.5412C67.2135 13.2694 67.0097 13.0556 66.7479 12.8999C66.4893 12.7441 66.1877 12.6662 65.843 12.6662C65.4751 12.6662 65.152 12.7557 64.8736 12.9347C64.5952 13.1103 64.3781 13.3423 64.2223 13.6307C64.0698 13.9157 63.9919 14.2289 63.9886 14.5703V15.6293C63.9886 16.0734 64.0698 16.4545 64.2322 16.7727C64.3946 17.0876 64.6217 17.3295 64.9133 17.4986C65.205 17.6643 65.5464 17.7472 65.9375 17.7472C66.1993 17.7472 66.4363 17.7107 66.6484 17.6378C66.8605 17.5616 67.0445 17.4505 67.2003 17.3047C67.356 17.1589 67.4737 16.9782 67.5533 16.7628L69.2336 16.9517C69.1276 17.3958 68.9254 17.7836 68.6271 18.1151C68.3321 18.4432 67.9543 18.6984 67.4936 18.8807C67.0329 19.0597 66.5059 19.1491 65.9126 19.1491ZM73.9446 19.1342C73.3447 19.1342 72.8077 18.9801 72.3338 18.6719C71.8598 18.3636 71.4853 17.9162 71.2102 17.3295C70.9351 16.7429 70.7976 16.0303 70.7976 15.1918C70.7976 14.3433 70.9368 13.6274 71.2152 13.044C71.4969 12.4574 71.8764 12.0149 72.3537 11.7166C72.8309 11.415 73.3629 11.2642 73.9495 11.2642C74.397 11.2642 74.7649 11.3404 75.0532 11.4929C75.3416 11.642 75.5703 11.8227 75.7393 12.0348C75.9084 12.2436 76.0393 12.4408 76.1321 12.6264H76.2066V8.81818H78.0113V19H76.2414V17.7969H76.1321C76.0393 17.9825 75.905 18.1797 75.7294 18.3885C75.5537 18.594 75.3217 18.7696 75.0334 18.9155C74.745 19.0613 74.3821 19.1342 73.9446 19.1342ZM74.4467 17.6577C74.8279 17.6577 75.1527 17.5549 75.4211 17.3494C75.6896 17.1406 75.8934 16.8506 76.0326 16.4794C76.1718 16.1082 76.2414 15.6757 76.2414 15.1818C76.2414 14.688 76.1718 14.2588 76.0326 13.8942C75.8968 13.5296 75.6946 13.2462 75.4261 13.044C75.161 12.8419 74.8345 12.7408 74.4467 12.7408C74.0457 12.7408 73.7109 12.8452 73.4424 13.054C73.174 13.2628 72.9718 13.5511 72.8359 13.919C72.7 14.2869 72.6321 14.7079 72.6321 15.1818C72.6321 15.6591 72.7 16.085 72.8359 16.4595C72.9751 16.8307 73.1789 17.1241 73.4474 17.3395C73.7192 17.5516 74.0523 17.6577 74.4467 17.6577Z" fill="#B1CFAA"/>
<path d="M106.208 13.5001L104.277 11.2992L104.546 8.38591L101.688 7.73674L100.192 5.21924L97.5001 6.37507L94.8084 5.21924L93.3122 7.73674L90.4542 8.37799L90.7234 11.2913L88.7917 13.5001L90.7234 15.7009L90.4542 18.6222L93.3122 19.2713L94.8084 21.7888L97.5001 20.6251L100.192 21.7809L101.688 19.2634L104.546 18.6142L104.277 15.7009L106.208 13.5001ZM95.9167 17.4584L92.7501 14.2917L93.8663 13.1755L95.9167 15.218L101.134 10.0009L102.25 11.1251L95.9167 17.4584Z" fill="#B1CFAA"/>
</svg>
