<svg width="40" height="40" viewBox="0 0 40 40" fill="none" xmlns="http://www.w3.org/2000/svg">
<path d="M20.0001 15.0984V10.8334C19.9995 10.504 19.9015 10.1821 19.7184 9.90838C19.5352 9.63463 19.2752 9.42121 18.9709 9.29502C18.6667 9.16883 18.3319 9.13552 18.0088 9.19929C17.6856 9.26306 17.3886 9.42105 17.1551 9.65336L6.66675 20L17.1551 30.345C17.3095 30.5003 17.4931 30.6236 17.6953 30.7077C17.8975 30.7918 18.1144 30.8351 18.3334 30.8351C18.5524 30.8351 18.7693 30.7918 18.9715 30.7077C19.1737 30.6236 19.3573 30.5003 19.5117 30.345C19.8243 30.0325 20 29.6087 20.0001 29.1667V25.0184C24.5834 25.1317 29.5917 25.9617 33.3334 31.6667V30C33.3334 22.2784 27.5001 15.9284 20.0001 15.0984Z" fill="#252525"/>
</svg>
