<svg width="119" height="28" viewBox="0 0 119 28" fill="none" xmlns="http://www.w3.org/2000/svg">
<rect x="1" y="1" width="117" height="26" rx="4" fill="#D1D2F4" stroke="#C1C1E1" stroke-width="2"/>
<path d="M16.3299 12.2536H14.4706C14.4175 11.9486 14.3198 11.6785 14.1772 11.4432C14.0347 11.2045 13.8574 11.0024 13.6453 10.8366C13.4331 10.6709 13.1912 10.5466 12.9194 10.4638C12.651 10.3776 12.3609 10.3345 12.0494 10.3345C11.4959 10.3345 11.0054 10.4737 10.5778 10.7521C10.1502 11.0272 9.81549 11.4316 9.57354 11.9652C9.33159 12.4955 9.21061 13.1435 9.21061 13.9091C9.21061 14.688 9.33159 15.3442 9.57354 15.8778C9.8188 16.4081 10.1536 16.8092 10.5778 17.081C11.0054 17.3494 11.4942 17.4837 12.0444 17.4837C12.3493 17.4837 12.6344 17.4439 12.8995 17.3643C13.168 17.2815 13.4083 17.1605 13.6204 17.0014C13.8358 16.8423 14.0165 16.6468 14.1623 16.4148C14.3115 16.1828 14.4142 15.9176 14.4706 15.6193L16.3299 15.6293C16.2603 16.1132 16.1095 16.5672 15.8775 16.9915C15.6488 17.4157 15.3489 17.7902 14.9777 18.1151C14.6064 18.4366 14.1723 18.6884 13.6751 18.8707C13.1779 19.0497 12.6261 19.1392 12.0196 19.1392C11.1247 19.1392 10.3259 18.9321 9.62325 18.5178C8.9206 18.1035 8.3671 17.5052 7.96274 16.723C7.55839 15.9408 7.35621 15.0028 7.35621 13.9091C7.35621 12.812 7.56004 11.8741 7.96771 11.0952C8.37538 10.313 8.93055 9.71473 9.6332 9.30043C10.3358 8.88613 11.1313 8.67898 12.0196 8.67898C12.5863 8.67898 13.1133 8.75852 13.6005 8.91761C14.0877 9.0767 14.5219 9.31037 14.9031 9.61861C15.2842 9.92353 15.5974 10.2981 15.8427 10.7422C16.0913 11.183 16.2537 11.6868 16.3299 12.2536ZM21.5504 19.1491C20.8047 19.1491 20.1584 18.9851 19.6115 18.657C19.0647 18.3288 18.6404 17.8698 18.3388 17.2798C18.0405 16.6899 17.8914 16.0005 17.8914 15.2116C17.8914 14.4228 18.0405 13.7318 18.3388 13.1385C18.6404 12.5452 19.0647 12.0845 19.6115 11.7564C20.1584 11.4283 20.8047 11.2642 21.5504 11.2642C22.2962 11.2642 22.9425 11.4283 23.4894 11.7564C24.0362 12.0845 24.4588 12.5452 24.7571 13.1385C25.0587 13.7318 25.2095 14.4228 25.2095 15.2116C25.2095 16.0005 25.0587 16.6899 24.7571 17.2798C24.4588 17.8698 24.0362 18.3288 23.4894 18.657C22.9425 18.9851 22.2962 19.1491 21.5504 19.1491ZM21.5604 17.7074C21.9647 17.7074 22.3028 17.5964 22.5746 17.3743C22.8464 17.1489 23.0486 16.8473 23.1811 16.4695C23.317 16.0916 23.385 15.6707 23.385 15.2067C23.385 14.7393 23.317 14.3168 23.1811 13.9389C23.0486 13.5578 22.8464 13.2545 22.5746 13.0291C22.3028 12.8037 21.9647 12.6911 21.5604 12.6911C21.1461 12.6911 20.8014 12.8037 20.5263 13.0291C20.2545 13.2545 20.0507 13.5578 19.9148 13.9389C19.7822 14.3168 19.7159 14.7393 19.7159 15.2067C19.7159 15.6707 19.7822 16.0916 19.9148 16.4695C20.0507 16.8473 20.2545 17.1489 20.5263 17.3743C20.8014 17.5964 21.1461 17.7074 21.5604 17.7074ZM27.0171 19V11.3636H28.7372V12.6612H28.8267C28.9858 12.2237 29.2493 11.8823 29.6172 11.6371C29.9851 11.3885 30.4243 11.2642 30.9347 11.2642C31.4517 11.2642 31.8876 11.3902 32.2422 11.642C32.6002 11.8906 32.8521 12.2304 32.9979 12.6612H33.0774C33.2465 12.237 33.5315 11.8989 33.9325 11.647C34.3369 11.3918 34.8158 11.2642 35.3693 11.2642C36.072 11.2642 36.6454 11.4863 37.0895 11.9304C37.5336 12.3745 37.7557 13.0225 37.7557 13.8743V19H35.951V14.1527C35.951 13.6787 35.8251 13.3324 35.5732 13.1136C35.3213 12.8916 35.013 12.7805 34.6485 12.7805C34.2143 12.7805 33.8745 12.9164 33.6293 13.1882C33.3873 13.4567 33.2664 13.8063 33.2664 14.2372V19H31.5014V14.0781C31.5014 13.6837 31.3821 13.3688 31.1435 13.1335C30.9082 12.8982 30.5999 12.7805 30.2188 12.7805C29.9602 12.7805 29.7249 12.8468 29.5128 12.9794C29.3007 13.1087 29.1316 13.2926 29.0057 13.5312C28.8797 13.7666 28.8168 14.0417 28.8168 14.3565V19H27.0171ZM39.8615 21.8636V11.3636H41.6314V12.6264H41.7358C41.8286 12.4408 41.9595 12.2436 42.1286 12.0348C42.2976 11.8227 42.5263 11.642 42.8146 11.4929C43.103 11.3404 43.4709 11.2642 43.9183 11.2642C44.5083 11.2642 45.0403 11.415 45.5142 11.7166C45.9915 12.0149 46.3693 12.4574 46.6477 13.044C46.9295 13.6274 47.0703 14.3433 47.0703 15.1918C47.0703 16.0303 46.9328 16.7429 46.6577 17.3295C46.3826 17.9162 46.0081 18.3636 45.5341 18.6719C45.0601 18.9801 44.5232 19.1342 43.9233 19.1342C43.4858 19.1342 43.1229 19.0613 42.8345 18.9155C42.5462 18.7696 42.3142 18.594 42.1385 18.3885C41.9662 18.1797 41.8319 17.9825 41.7358 17.7969H41.6612V21.8636H39.8615ZM41.6264 15.1818C41.6264 15.6757 41.696 16.1082 41.8352 16.4794C41.9778 16.8506 42.1816 17.1406 42.4467 17.3494C42.7152 17.5549 43.04 17.6577 43.4212 17.6577C43.8189 17.6577 44.152 17.5516 44.4205 17.3395C44.6889 17.1241 44.8911 16.8307 45.027 16.4595C45.1662 16.085 45.2358 15.6591 45.2358 15.1818C45.2358 14.7079 45.1679 14.2869 45.032 13.919C44.8961 13.5511 44.6939 13.2628 44.4254 13.054C44.157 12.8452 43.8222 12.7408 43.4212 12.7408C43.0367 12.7408 42.7102 12.8419 42.4418 13.044C42.1733 13.2462 41.9695 13.5296 41.8303 13.8942C41.6944 14.2588 41.6264 14.688 41.6264 15.1818ZM50.6912 8.81818V19H48.8915V8.81818H50.6912ZM56.2026 19.1491C55.437 19.1491 54.7757 18.9901 54.2189 18.6719C53.6654 18.3504 53.2395 17.8963 52.9412 17.3097C52.6429 16.7197 52.4938 16.0253 52.4938 15.2266C52.4938 14.4411 52.6429 13.7517 52.9412 13.1584C53.2428 12.5618 53.6638 12.0978 54.204 11.7663C54.7443 11.4316 55.379 11.2642 56.1081 11.2642C56.5788 11.2642 57.0229 11.3404 57.4405 11.4929C57.8614 11.642 58.2327 11.8741 58.5542 12.1889C58.879 12.5038 59.1342 12.9048 59.3198 13.392C59.5054 13.8759 59.5982 14.4527 59.5982 15.1222V15.674H53.339V14.4609H57.873C57.8697 14.1162 57.7952 13.8097 57.6493 13.5412C57.5035 13.2694 57.2997 13.0556 57.0378 12.8999C56.7793 12.7441 56.4777 12.6662 56.133 12.6662C55.7651 12.6662 55.4419 12.7557 55.1635 12.9347C54.8851 13.1103 54.668 13.3423 54.5122 13.6307C54.3598 13.9157 54.2819 14.2289 54.2786 14.5703V15.6293C54.2786 16.0734 54.3598 16.4545 54.5222 16.7727C54.6846 17.0876 54.9116 17.3295 55.2033 17.4986C55.495 17.6643 55.8363 17.7472 56.2274 17.7472C56.4893 17.7472 56.7263 17.7107 56.9384 17.6378C57.1505 17.5616 57.3345 17.4505 57.4902 17.3047C57.646 17.1589 57.7637 16.9782 57.8432 16.7628L59.5236 16.9517C59.4175 17.3958 59.2154 17.7836 58.9171 18.1151C58.6221 18.4432 58.2443 18.6984 57.7836 18.8807C57.3229 19.0597 56.7959 19.1491 56.2026 19.1491ZM65.2139 11.3636V12.7557H60.824V11.3636H65.2139ZM61.9078 9.53409H63.7076V16.7031C63.7076 16.9451 63.744 17.1307 63.8169 17.2599C63.8932 17.3859 63.9926 17.4721 64.1152 17.5185C64.2379 17.5649 64.3737 17.5881 64.5229 17.5881C64.6356 17.5881 64.7383 17.5798 64.8311 17.5632C64.9272 17.5466 65.0002 17.5317 65.0499 17.5185L65.3531 18.9254C65.257 18.9586 65.1195 18.995 64.9405 19.0348C64.7648 19.0746 64.5494 19.0978 64.2942 19.1044C63.8434 19.1177 63.4374 19.0497 63.0762 18.9006C62.7149 18.7481 62.4282 18.5128 62.2161 18.1946C62.0073 17.8764 61.9045 17.4787 61.9078 17.0014V9.53409ZM70.2977 19.1491C69.5321 19.1491 68.8709 18.9901 68.3141 18.6719C67.7606 18.3504 67.3347 17.8963 67.0364 17.3097C66.7381 16.7197 66.5889 16.0253 66.5889 15.2266C66.5889 14.4411 66.7381 13.7517 67.0364 13.1584C67.338 12.5618 67.7589 12.0978 68.2992 11.7663C68.8394 11.4316 69.4741 11.2642 70.2033 11.2642C70.6739 11.2642 71.1181 11.3404 71.5357 11.4929C71.9566 11.642 72.3278 11.8741 72.6493 12.1889C72.9741 12.5038 73.2293 12.9048 73.4149 13.392C73.6005 13.8759 73.6933 14.4527 73.6933 15.1222V15.674H67.4341V14.4609H71.9682C71.9649 14.1162 71.8903 13.8097 71.7445 13.5412C71.5986 13.2694 71.3948 13.0556 71.133 12.8999C70.8744 12.7441 70.5728 12.6662 70.2281 12.6662C69.8602 12.6662 69.5371 12.7557 69.2587 12.9347C68.9803 13.1103 68.7632 13.3423 68.6074 13.6307C68.4549 13.9157 68.377 14.2289 68.3737 14.5703V15.6293C68.3737 16.0734 68.4549 16.4545 68.6173 16.7727C68.7797 17.0876 69.0068 17.3295 69.2984 17.4986C69.5901 17.6643 69.9315 17.7472 70.3226 17.7472C70.5844 17.7472 70.8214 17.7107 71.0335 17.6378C71.2457 17.5616 71.4296 17.4505 71.5854 17.3047C71.7412 17.1589 71.8588 16.9782 71.9384 16.7628L73.6188 16.9517C73.5127 17.3958 73.3105 17.7836 73.0122 18.1151C72.7172 18.4432 72.3394 18.6984 71.8787 18.8807C71.418 19.0597 70.891 19.1491 70.2977 19.1491ZM78.3297 19.1342C77.7298 19.1342 77.1929 18.9801 76.7189 18.6719C76.2449 18.3636 75.8704 17.9162 75.5953 17.3295C75.3202 16.7429 75.1827 16.0303 75.1827 15.1918C75.1827 14.3433 75.3219 13.6274 75.6003 13.044C75.882 12.4574 76.2615 12.0149 76.7388 11.7166C77.2161 11.415 77.748 11.2642 78.3347 11.2642C78.7821 11.2642 79.15 11.3404 79.4384 11.4929C79.7267 11.642 79.9554 11.8227 80.1244 12.0348C80.2935 12.2436 80.4244 12.4408 80.5172 12.6264H80.5918V8.81818H82.3965V19H80.6266V17.7969H80.5172C80.4244 17.9825 80.2902 18.1797 80.1145 18.3885C79.9388 18.594 79.7068 18.7696 79.4185 18.9155C79.1301 19.0613 78.7672 19.1342 78.3297 19.1342ZM78.8318 17.6577C79.213 17.6577 79.5378 17.5549 79.8063 17.3494C80.0747 17.1406 80.2786 16.8506 80.4178 16.4794C80.557 16.1082 80.6266 15.6757 80.6266 15.1818C80.6266 14.688 80.557 14.2588 80.4178 13.8942C80.2819 13.5296 80.0797 13.2462 79.8112 13.044C79.5461 12.8419 79.2196 12.7408 78.8318 12.7408C78.4308 12.7408 78.096 12.8452 77.8276 13.054C77.5591 13.2628 77.3569 13.5511 77.221 13.919C77.0851 14.2869 77.0172 14.7079 77.0172 15.1818C77.0172 15.6591 77.0851 16.085 77.221 16.4595C77.3602 16.8307 77.5641 17.1241 77.8325 17.3395C78.1043 17.5516 78.4374 17.6577 78.8318 17.6577Z" fill="#AAABCF"/>
<path d="M95.0376 10.884C95.1822 9.70764 95.74 8.62093 96.6115 7.81767C97.483 7.01441 98.6114 6.54683 99.7956 6.49833C100.98 6.44983 102.143 6.82357 103.077 7.55288C104.011 8.2822 104.656 9.31966 104.896 10.4802C103.723 10.1667 102.487 10.1699 101.314 10.4895C100.142 10.809 99.0755 11.4335 98.2231 12.2993C97.3708 13.1652 96.7631 14.2414 96.4619 15.4185C96.1608 16.5956 96.177 17.8314 96.5089 19.0002H95.3126C94.2575 19.0025 93.2429 18.5941 92.4835 17.8616C91.7241 17.1291 91.2795 16.1298 91.2438 15.0753C91.2081 14.0208 91.584 12.9938 92.2921 12.2115C93.0001 11.4292 93.9848 10.9532 95.0376 10.884ZM108.75 17.1252C108.75 17.8639 108.605 18.5954 108.322 19.2778C108.039 19.9603 107.625 20.5804 107.103 21.1027C106.58 21.625 105.96 22.0394 105.278 22.3221C104.595 22.6047 103.864 22.7502 103.125 22.7502C102.386 22.7502 101.655 22.6047 100.973 22.3221C100.29 22.0394 99.67 21.625 99.1476 21.1027C98.6253 20.5804 98.211 19.9603 97.9283 19.2778C97.6456 18.5954 97.5001 17.8639 97.5001 17.1252C97.5001 15.6334 98.0927 14.2026 99.1476 13.1478C100.203 12.0929 101.633 11.5002 103.125 11.5002C104.617 11.5002 106.048 12.0929 107.103 13.1478C108.157 14.2026 108.75 15.6334 108.75 17.1252ZM106.068 14.8077C106.01 14.7495 105.941 14.7034 105.865 14.6718C105.789 14.6403 105.707 14.6241 105.625 14.6241C105.543 14.6241 105.461 14.6403 105.386 14.6718C105.31 14.7034 105.241 14.7495 105.183 14.8077L101.875 18.1165L101.068 17.3077C101.009 17.2496 100.941 17.2035 100.865 17.1721C100.789 17.1406 100.707 17.1244 100.625 17.1244C100.543 17.1244 100.462 17.1406 100.386 17.1721C100.31 17.2035 100.241 17.2496 100.183 17.3077C100.124 17.3658 100.078 17.4348 100.047 17.5108C100.016 17.5867 99.9993 17.6681 99.9993 17.7502C99.9993 17.8324 100.016 17.9138 100.047 17.9897C100.078 18.0656 100.124 18.1346 100.183 18.1927L101.433 19.4427C101.491 19.5009 101.56 19.5471 101.636 19.5786C101.711 19.6101 101.793 19.6263 101.875 19.6263C101.957 19.6263 102.039 19.6101 102.115 19.5786C102.191 19.5471 102.26 19.5009 102.318 19.4427L106.068 15.6927C106.126 15.6347 106.172 15.5657 106.203 15.4898C106.235 15.4138 106.251 15.3324 106.251 15.2502C106.251 15.168 106.235 15.0866 106.203 15.0107C106.172 14.9348 106.126 14.8658 106.068 14.8077Z" fill="#AAABCF"/>
</svg>
