<svg width="70" height="70" viewBox="0 0 70 70" fill="none" xmlns="http://www.w3.org/2000/svg">
<circle cx="35" cy="35" r="35" fill="#787FE6"/>
<path d="M41.525 14.973C43.955 18.909 46.274 25.263 46.859 35.43L51.359 40.92C52.4222 42.2504 53.0009 43.903 53 45.606V55.5C53 55.8148 52.9009 56.1217 52.7169 56.3771C52.5328 56.6325 52.273 56.8235 51.9743 56.923C51.6757 57.0226 51.3533 57.0256 51.0527 56.9318C50.7522 56.8379 50.4889 56.6519 50.3 56.4L46.925 51.9C46.427 51.234 45.665 50.7 44.669 50.19C44.027 49.866 43.427 49.614 42.788 49.344L42.2 49.095C40.1 50.379 37.55 51 35 51C32.45 51 29.9 50.379 27.8 49.095C27.598 49.183 27.4 49.267 27.206 49.347C26.573 49.614 25.973 49.866 25.331 50.19C24.335 50.7 23.573 51.234 23.075 51.9L19.7 56.4C19.5111 56.6519 19.2478 56.8379 18.9473 56.9318C18.6467 57.0256 18.3243 57.0226 18.0257 56.923C17.727 56.8235 17.4672 56.6325 17.2831 56.3771C17.0991 56.1217 17 55.8148 17 55.5V45.606C17 43.9026 17.5798 42.25 18.644 40.92L18.656 40.905L23.147 35.43C23.738 25.461 26.054 19.128 28.469 15.162C29.867 12.861 31.289 11.376 32.399 10.452C32.9581 9.98376 33.5621 9.57177 34.202 9.222C34.4448 9.08135 34.7194 9.00494 35 9C35.303 9 35.51 9.081 35.75 9.192C35.862 9.242 36.007 9.317 36.185 9.417C36.539 9.615 37.016 9.918 37.574 10.362C38.693 11.253 40.124 12.699 41.525 14.973ZM39.5 27C39.5 23.685 37.484 21 35 21C32.516 21 30.5 23.685 30.5 27C30.5 30.315 32.516 33 35 33C37.484 33 39.5 30.315 39.5 27Z" fill="white"/>
<path d="M35 52.5C36.5 52.5 37.997 52.362 39.437 52.083L36.2 56.4C36.0603 56.5863 35.8791 56.7375 35.6708 56.8416C35.4625 56.9458 35.2329 57 35 57C34.7671 57 34.5375 56.9458 34.3292 56.8416C34.1209 56.7375 33.9397 56.5863 33.8 56.4L30.563 52.083C32.003 52.362 33.503 52.5 35 52.5Z" fill="white"/>
</svg>
