<svg width="70" height="70" viewBox="0 0 70 70" fill="none" xmlns="http://www.w3.org/2000/svg">
<circle cx="35" cy="35" r="35" fill="#FACD79"/>
<path d="M39.5 55.25V51.5375C39.5 51.2375 39.5562 50.9472 39.6687 50.6667C39.7812 50.3862 39.95 50.1327 40.175 49.9062L51.9312 38.2063C52.2687 37.8688 52.6437 37.625 53.0562 37.475C53.4687 37.325 53.8813 37.25 54.2938 37.25C54.7438 37.25 55.175 37.3347 55.5875 37.5042C56 37.6737 56.375 37.9265 56.7125 38.2625L58.7938 40.3438C59.0938 40.6813 59.3285 41.0562 59.498 41.4688C59.6675 41.8813 59.7515 42.2938 59.75 42.7063C59.7485 43.1188 59.6735 43.541 59.525 43.973C59.3765 44.405 59.1328 44.789 58.7938 45.125L47.0938 56.825C46.8687 57.05 46.616 57.2187 46.3355 57.3312C46.055 57.4437 45.764 57.5 45.4625 57.5H41.75C41.1125 57.5 40.5785 57.2847 40.148 56.8542C39.7175 56.4237 39.5015 55.889 39.5 55.25ZM54.2938 44.9L56.375 42.7063L54.2938 40.625L52.1562 42.7625L54.2938 44.9ZM17 53C15.7625 53 14.7035 52.5598 13.823 51.6793C12.9425 50.7988 12.5015 49.739 12.5 48.5V21.5C12.5 20.2625 12.941 19.2035 13.823 18.323C14.705 17.4425 15.764 17.0015 17 17H28.6438C29.2438 17 29.816 17.1125 30.3605 17.3375C30.905 17.5625 31.3827 17.8812 31.7937 18.2937L35 21.5H53C54.2375 21.5 55.2973 21.941 56.1793 22.823C57.0613 23.705 57.5015 24.764 57.5 26V30.6687C57.5 31.3437 57.2277 31.8875 56.6832 32.3C56.1387 32.7125 55.511 32.8625 54.8 32.75H54.1812C53.1312 32.75 52.1472 32.9375 51.2292 33.3125C50.3112 33.6875 49.4765 34.25 48.725 35L36.2937 47.4312C35.8812 47.8437 35.5625 48.3223 35.3375 48.8668C35.1125 49.4113 35 49.9827 35 50.5812V50.75C35 51.3875 34.784 51.9222 34.352 52.3542C33.92 52.7862 33.386 53.0015 32.75 53H17Z" fill="white"/>
</svg>
