<svg width="156" height="156" viewBox="0 0 156 156" fill="none" xmlns="http://www.w3.org/2000/svg">
<circle cx="78" cy="78" r="78" fill="#474747"/>
<path d="M103.366 93.8492L110.321 114.725C111.02 116.822 110.964 119.098 110.163 121.158C109.362 123.218 107.866 124.934 105.934 126.008C98.5075 130.141 89.18 132.167 78 132.167C66.82 132.167 57.4925 130.141 50.0662 126.008C48.134 124.934 46.6379 123.218 45.8368 121.158C45.0356 119.098 44.9797 116.822 45.6787 114.725L52.6392 93.8492C59.9271 99.399 68.8395 102.395 78 102.375C87.5333 102.375 96.3192 99.2008 103.366 93.8492ZM78 23.8333C85.2421 23.8333 91.9858 25.935 97.6625 29.5696C97.2183 31.265 96.5358 32.5163 95.6746 33.3829C94.3042 34.7479 91.975 35.6579 88.4975 35.9288L87.295 35.9992L85.2421 36.0533C73.4933 36.9146 73.7858 54.9792 86.125 54.9792C90.9458 54.9792 94.0171 55.9596 95.6746 57.6171C97.0396 58.9875 97.9496 61.3167 98.2204 64.7942L98.2908 65.9967L98.345 68.0496C98.865 75.1671 105.701 77.8646 111.009 76.1421C107.437 83.629 101.425 89.6789 93.9611 93.2985C86.497 96.9181 78.024 97.8922 69.9331 96.061C61.8423 94.2298 54.6145 89.7021 49.4364 83.2211C44.2583 76.7402 41.4376 68.6913 41.4375 60.3958C41.4375 50.6989 45.2896 41.399 52.1464 34.5422C59.0032 27.6854 68.303 23.8333 78 23.8333ZM111.854 23.8333C111.854 30.0625 113.317 34.45 116.079 37.2125C118.63 39.7583 122.568 41.2046 128.05 41.4104L129.458 41.4375C134.647 41.4375 134.864 48.9017 130.108 49.5192L129.458 49.5625C123.229 49.5625 118.842 51.025 116.079 53.7875C113.533 56.3442 112.087 60.2767 111.881 65.7583L111.854 67.1667C111.854 72.5833 103.729 72.5833 103.729 67.1667C103.729 60.9375 102.267 56.55 99.5042 53.7875C96.9475 51.2417 93.015 49.7954 87.5333 49.5896L86.125 49.5625C80.9358 49.5625 80.7192 42.0983 85.475 41.4808L86.125 41.4375C92.3542 41.4375 96.7417 39.975 99.5042 37.2125C102.267 34.45 103.729 30.0625 103.729 23.8333C103.729 18.4167 111.854 18.4167 111.854 23.8333Z" fill="white"/>
</svg>
