<svg width="404" height="389" viewBox="0 0 404 389" fill="none" xmlns="http://www.w3.org/2000/svg">
<path d="M260.979 387H132L169.391 167.21C169.391 167.21 169.391 110.368 189.557 58.7364C209.723 7.1047 251.316 33.1574 270.642 58.7364C289.967 84.3153 327.779 119.842 324.838 212.684C321.897 305.526 260.979 387 260.979 387Z" fill="#E95F5F"/>
<path d="M196.482 345.242C186.752 322.151 188.63 295.803 201.537 274.325L207.022 265.198C243.837 203.933 336.707 219.741 351.181 289.736L371.5 388H214.5L196.482 345.242Z" fill="#FACD79"/>
<path d="M57.8017 388C57.8017 388 1.99789 368.981 57.8017 202.814C113.605 36.6475 201.829 95.2062 222.024 202.814C242.22 310.422 222.024 388 222.024 388H57.8017Z" fill="#787FE6"/>
</svg>
