<svg width="14" height="14" viewBox="0 0 14 14" fill="none" xmlns="http://www.w3.org/2000/svg">
<path d="M1.5 0C0.671875 0 0 0.671875 0 1.5V12.5C0 13.3281 0.671875 14 1.5 14H12.5C13.3281 14 14 13.3281 14 12.5V1.5C14 0.671875 13.3281 0 12.5 0H1.5ZM6.93947 2.00006C6.95961 1.99989 6.97975 2.00017 6.99988 2.00091C7.24547 2.00159 7.49406 2.04394 7.71784 2.14788C8.64241 2.6705 9.55841 3.20869 10.4797 3.73731C11.0536 4.00625 11.4995 4.55222 11.561 5.19531C11.5707 6.2575 11.5624 7.32006 11.5651 8.38237C11.6192 9.01394 11.3693 9.673 10.843 10.0477C9.92809 10.5872 9.00388 11.1113 8.08531 11.6449C7.56534 12.0075 6.86953 12.1202 6.28175 11.8522C5.35709 11.3296 4.44125 10.7911 3.52003 10.2623C2.94616 9.99328 2.50022 9.44747 2.43878 8.80431C2.42909 7.74213 2.43731 6.67953 2.43456 5.61719C2.38472 5.01803 2.60269 4.39759 3.07706 4.01203C3.80238 3.55062 4.56444 3.14587 5.30444 2.70722C5.83153 2.43431 6.31956 2.00512 6.93944 2.00006M6.42131 4.67609V9.32366H7.57859V4.67609H6.42131ZM7.87759 5.68766V9.32366H9.03428V5.68769L7.87759 5.68766ZM4.96525 7.58447V9.32366H6.12228V7.58447H4.96525Z" fill="#630A45"/>
</svg>
