<svg width="16" height="16" viewBox="0 0 16 16" fill="none" xmlns="http://www.w3.org/2000/svg">
<g clip-path="url(#clip0_176_1010)">
<path d="M7.99979 0.251396C6.99407 0.214708 6.21526 0.909583 5.37191 1.34621C4.22488 2.02615 3.04372 2.6534 1.91954 3.36858C1.18422 3.96624 0.846381 4.92796 0.9236 5.85668C0.927881 7.5033 0.915069 9.1503 0.930069 10.7967C1.02529 11.7936 1.71654 12.6396 2.60604 13.0566C4.03397 13.8761 5.45354 14.7109 6.88669 15.5209C7.79776 15.9363 8.87629 15.7616 9.68222 15.1996C11.106 14.3726 12.5385 13.5602 13.9567 12.724C14.7725 12.1431 15.1597 11.1216 15.076 10.1427C15.0717 8.49605 15.0846 6.84908 15.0695 5.20271C14.9742 4.2059 14.2831 3.35968 13.3935 2.94283C11.9655 2.12346 10.5457 1.28924 9.11263 0.479177C8.76576 0.318052 8.38044 0.252458 7.99982 0.251365M7.1031 4.39793H8.89685V11.6017H7.1031V4.39793ZM9.36032 5.96586H11.1532V11.6017H9.36032V5.96586ZM4.84619 8.90586H6.63963V11.6017H4.84619V8.90586Z" fill="#630A45"/>
</g>
<defs>
<clipPath id="clip0_176_1010">
<rect width="16" height="16" fill="white"/>
</clipPath>
</defs>
</svg>
