<svg width="20" height="20" viewBox="0 0 20 20" fill="none" xmlns="http://www.w3.org/2000/svg">
<path d="M10.5728 2.50001C8.95666 2.50001 7.40669 3.14203 6.26389 4.28483C5.1211 5.42762 4.47908 6.97759 4.47908 8.59376V11.8451L3.17366 15.1141C3.13278 15.2167 3.11764 15.3278 3.12957 15.4377C3.1415 15.5475 3.18014 15.6528 3.24211 15.7443C3.30408 15.8358 3.38751 15.9107 3.4851 15.9626C3.58269 16.0144 3.69149 16.0416 3.80199 16.0417H7.86449C7.86449 17.5421 9.07241 18.75 10.5728 18.75C12.0732 18.75 13.2812 17.5421 13.2812 16.0417H17.3437C17.4542 16.0416 17.563 16.0144 17.6605 15.9626C17.7581 15.9107 17.8416 15.8358 17.9035 15.7443C17.9655 15.6528 18.0041 15.5475 18.0161 15.4377C18.028 15.3278 18.0129 15.2167 17.972 15.1141L16.6666 11.8438V9.27084C16.2006 9.27114 15.7396 9.17525 15.3124 8.98917V11.9765C15.3126 12.0623 15.3292 12.1473 15.3612 12.227L16.3443 14.6875H4.80137L5.78449 12.227C5.81648 12.1473 5.83302 12.0623 5.83324 11.9765V8.59376C5.83301 7.70985 6.07996 6.84348 6.54619 6.09253C7.01242 5.34158 7.67936 4.73597 8.47167 4.34412C9.26397 3.95226 10.1501 3.78977 11.0299 3.87501C11.9097 3.96024 12.7481 4.28981 13.4504 4.82647C13.5953 4.38636 13.8282 3.98417 14.1289 3.64428C13.0934 2.89832 11.849 2.49791 10.5728 2.50001ZM11.927 16.0417C11.927 16.7946 11.3257 17.3958 10.5728 17.3958C9.81991 17.3958 9.21866 16.7946 9.21866 16.0417H11.927ZM15.1337 4.55292C14.9407 4.77492 14.7983 5.03617 14.7162 5.31861C14.6342 5.60104 14.6144 5.89794 14.6583 6.18876C14.7309 6.66942 14.9735 7.10811 15.342 7.42517C15.7105 7.74222 16.1805 7.91661 16.6666 7.91667C17.0066 7.9167 17.3412 7.83136 17.6398 7.66847C17.9383 7.50558 18.1911 7.27036 18.3751 6.98436C18.559 6.69837 18.6683 6.37077 18.6927 6.0316C18.7172 5.69242 18.6561 5.35253 18.5151 5.04309C18.3741 4.73365 18.1577 4.46457 17.8856 4.26052C17.6136 4.05646 17.2947 3.92397 16.9582 3.87518C16.6216 3.8264 16.2782 3.86289 15.9594 3.9813C15.6407 4.09971 15.3567 4.29626 15.1337 4.55292Z" fill="black"/>
</svg>
