<svg width="119" height="28" viewBox="0 0 119 28" fill="none" xmlns="http://www.w3.org/2000/svg">
<rect x="1" y="1" width="117" height="26" rx="4" fill="#F9F6CC" stroke="#EAE6B8" stroke-width="2"/>
<path d="M17.424 19V8.81818H21.2422C22.0244 8.81818 22.6807 8.96401 23.211 9.25568C23.7446 9.54735 24.1473 9.94839 24.4191 10.4588C24.6942 10.9659 24.8317 11.5426 24.8317 12.1889C24.8317 12.8419 24.6942 13.4219 24.4191 13.929C24.144 14.4361 23.7379 14.8355 23.201 15.1271C22.6641 15.4155 22.0029 15.5597 21.2174 15.5597H18.6868V14.0433H20.9688C21.4262 14.0433 21.8007 13.9638 22.0924 13.8047C22.384 13.6456 22.5995 13.4268 22.7387 13.1484C22.8812 12.87 22.9524 12.5502 22.9524 12.1889C22.9524 11.8277 22.8812 11.5095 22.7387 11.2344C22.5995 10.9593 22.3824 10.7455 22.0874 10.593C21.7957 10.4373 21.4195 10.3594 20.9588 10.3594H19.2685V19H17.424ZM29.9056 19.1491C29.1399 19.1491 28.4787 18.9901 27.9219 18.6719C27.3684 18.3504 26.9425 17.8963 26.6442 17.3097C26.3459 16.7197 26.1967 16.0253 26.1967 15.2266C26.1967 14.4411 26.3459 13.7517 26.6442 13.1584C26.9458 12.5618 27.3667 12.0978 27.907 11.7663C28.4472 11.4316 29.0819 11.2642 29.8111 11.2642C30.2817 11.2642 30.7259 11.3404 31.1435 11.4929C31.5644 11.642 31.9356 11.8741 32.2571 12.1889C32.5819 12.5038 32.8371 12.9048 33.0227 13.392C33.2083 13.8759 33.3011 14.4527 33.3011 15.1222V15.674H27.0419V14.4609H31.576C31.5727 14.1162 31.4981 13.8097 31.3523 13.5412C31.2065 13.2694 31.0026 13.0556 30.7408 12.8999C30.4823 12.7441 30.1806 12.6662 29.836 12.6662C29.4681 12.6662 29.1449 12.7557 28.8665 12.9347C28.5881 13.1103 28.371 13.3423 28.2152 13.6307C28.0627 13.9157 27.9849 14.2289 27.9815 14.5703V15.6293C27.9815 16.0734 28.0627 16.4545 28.2252 16.7727C28.3876 17.0876 28.6146 17.3295 28.9063 17.4986C29.1979 17.6643 29.5393 17.7472 29.9304 17.7472C30.1922 17.7472 30.4292 17.7107 30.6413 17.6378C30.8535 17.5616 31.0374 17.4505 31.1932 17.3047C31.349 17.1589 31.4666 16.9782 31.5462 16.7628L33.2266 16.9517C33.1205 17.3958 32.9183 17.7836 32.62 18.1151C32.3251 18.4432 31.9472 18.6984 31.4865 18.8807C31.0258 19.0597 30.4988 19.1491 29.9056 19.1491ZM36.9034 14.5256V19H35.1037V11.3636H36.8239V12.6612H36.9134C37.089 12.2337 37.3691 11.8939 37.7536 11.642C38.1413 11.3902 38.6203 11.2642 39.1903 11.2642C39.7173 11.2642 40.1764 11.3769 40.5675 11.6023C40.9619 11.8277 41.2668 12.1541 41.4823 12.5817C41.701 13.0092 41.8087 13.5279 41.8054 14.1378V19H40.0057V14.4162C40.0057 13.9058 39.8731 13.5064 39.608 13.218C39.3461 12.9297 38.9832 12.7855 38.5192 12.7855C38.2043 12.7855 37.9243 12.8551 37.679 12.9943C37.437 13.1302 37.2465 13.3274 37.1073 13.5859C36.9714 13.8445 36.9034 14.1577 36.9034 14.5256ZM46.7488 19.1342C46.1489 19.1342 45.6119 18.9801 45.138 18.6719C44.664 18.3636 44.2895 17.9162 44.0144 17.3295C43.7393 16.7429 43.6017 16.0303 43.6017 15.1918C43.6017 14.3433 43.7409 13.6274 44.0194 13.044C44.3011 12.4574 44.6806 12.0149 45.1578 11.7166C45.6351 11.415 46.1671 11.2642 46.7537 11.2642C47.2012 11.2642 47.5691 11.3404 47.8574 11.4929C48.1458 11.642 48.3745 11.8227 48.5435 12.0348C48.7125 12.2436 48.8435 12.4408 48.9363 12.6264H49.0108V8.81818H50.8155V19H49.0456V17.7969H48.9363C48.8435 17.9825 48.7092 18.1797 48.5336 18.3885C48.3579 18.594 48.1259 18.7696 47.8375 18.9155C47.5492 19.0613 47.1863 19.1342 46.7488 19.1342ZM47.2509 17.6577C47.632 17.6577 47.9569 17.5549 48.2253 17.3494C48.4938 17.1406 48.6976 16.8506 48.8368 16.4794C48.976 16.1082 49.0456 15.6757 49.0456 15.1818C49.0456 14.688 48.976 14.2588 48.8368 13.8942C48.7009 13.5296 48.4988 13.2462 48.2303 13.044C47.9651 12.8419 47.6387 12.7408 47.2509 12.7408C46.8498 12.7408 46.5151 12.8452 46.2466 13.054C45.9782 13.2628 45.776 13.5511 45.6401 13.919C45.5042 14.2869 45.4363 14.7079 45.4363 15.1818C45.4363 15.6591 45.5042 16.085 45.6401 16.4595C45.7793 16.8307 45.9831 17.1241 46.2516 17.3395C46.5234 17.5516 46.8565 17.6577 47.2509 17.6577ZM53.0133 19V11.3636H54.813V19H53.0133ZM53.9181 10.2798C53.6331 10.2798 53.3878 10.1854 53.1823 9.99645C52.9769 9.80421 52.8741 9.57386 52.8741 9.3054C52.8741 9.03362 52.9769 8.80327 53.1823 8.61435C53.3878 8.42211 53.6331 8.32599 53.9181 8.32599C54.2065 8.32599 54.4518 8.42211 54.6539 8.61435C54.8594 8.80327 54.9622 9.03362 54.9622 9.3054C54.9622 9.57386 54.8594 9.80421 54.6539 9.99645C54.4518 10.1854 54.2065 10.2798 53.9181 10.2798ZM58.7434 14.5256V19H56.9437V11.3636H58.6639V12.6612H58.7534C58.929 12.2337 59.2091 11.8939 59.5936 11.642C59.9813 11.3902 60.4603 11.2642 61.0303 11.2642C61.5573 11.2642 62.0164 11.3769 62.4075 11.6023C62.8019 11.8277 63.1068 12.1541 63.3223 12.5817C63.541 13.0092 63.6487 13.5279 63.6454 14.1378V19H61.8457V14.4162C61.8457 13.9058 61.7131 13.5064 61.448 13.218C61.1861 12.9297 60.8232 12.7855 60.3592 12.7855C60.0443 12.7855 59.7643 12.8551 59.519 12.9943C59.277 13.1302 59.0865 13.3274 58.9473 13.5859C58.8114 13.8445 58.7434 14.1577 58.7434 14.5256ZM69.076 22.0227C68.4297 22.0227 67.8745 21.9349 67.4105 21.7592C66.9465 21.5869 66.5736 21.3549 66.2919 21.0632C66.0102 20.7715 65.8146 20.4484 65.7052 20.0938L67.326 19.701C67.3989 19.8501 67.5049 19.9976 67.6442 20.1435C67.7834 20.2926 67.9706 20.4152 68.2059 20.5114C68.4446 20.6108 68.7445 20.6605 69.1058 20.6605C69.6162 20.6605 70.0388 20.5362 70.3736 20.2876C70.7083 20.0424 70.8757 19.638 70.8757 19.0746V17.6278H70.7862C70.6934 17.8134 70.5575 18.004 70.3785 18.1996C70.2029 18.3951 69.9692 18.5592 69.6775 18.6918C69.3892 18.8243 69.0263 18.8906 68.5888 18.8906C68.0021 18.8906 67.4701 18.7531 66.9929 18.478C66.5189 18.1996 66.1411 17.7853 65.8594 17.2351C65.5809 16.6816 65.4417 15.9889 65.4417 15.157C65.4417 14.3184 65.5809 13.6108 65.8594 13.0341C66.1411 12.4541 66.5206 12.0149 66.9978 11.7166C67.4751 11.415 68.0071 11.2642 68.5937 11.2642C69.0412 11.2642 69.4091 11.3404 69.6974 11.4929C69.9891 11.642 70.2211 11.8227 70.3934 12.0348C70.5658 12.2436 70.6967 12.4408 70.7862 12.6264H70.8856V11.3636H72.6605V19.1243C72.6605 19.7772 72.5047 20.3175 72.1932 20.745C71.8816 21.1726 71.4557 21.4924 70.9155 21.7045C70.3752 21.9167 69.762 22.0227 69.076 22.0227ZM69.0909 17.4787C69.472 17.4787 69.7969 17.3859 70.0653 17.2003C70.3338 17.0147 70.5376 16.7479 70.6768 16.3999C70.816 16.0518 70.8856 15.6342 70.8856 15.147C70.8856 14.6664 70.816 14.2455 70.6768 13.8842C70.5409 13.523 70.3388 13.2429 70.0703 13.044C69.8051 12.8419 69.4787 12.7408 69.0909 12.7408C68.6898 12.7408 68.3551 12.8452 68.0866 13.054C67.8182 13.2628 67.616 13.5495 67.4801 13.9141C67.3442 14.2753 67.2763 14.6863 67.2763 15.147C67.2763 15.6143 67.3442 16.0237 67.4801 16.375C67.6193 16.723 67.8231 16.9948 68.0916 17.1903C68.3634 17.3826 68.6965 17.4787 69.0909 17.4787Z" fill="#DBD89F"/>
<path d="M102.2 22H92V16.9L95.4 13.5L92 10.1V5H102.2V10.1L98.8 13.5L102.2 16.9M93.7 9.675L97.1 13.075L100.5 9.675V6.7H93.7M97.1 13.925L93.7 17.325V20.3H100.5V17.325M98.8 18.6H95.4V17.92L97.1 16.22L98.8 17.92V18.6Z" fill="#DBD89F"/>
</svg>
