<svg width="119" height="28" viewBox="0 0 119 28" fill="none" xmlns="http://www.w3.org/2000/svg">
<rect x="1" y="1" width="117" height="26" rx="4" fill="#FBCACD" stroke="#EDB5B8" stroke-width="2"/>
<path d="M15.1854 19V8.81818H19.0036C19.7858 8.81818 20.442 8.95407 20.9723 9.22585C21.5059 9.49763 21.9086 9.87879 22.1804 10.3693C22.4555 10.8565 22.5931 11.425 22.5931 12.0746C22.5931 12.7275 22.4539 13.2943 22.1755 13.7749C21.9004 14.2521 21.4943 14.6217 20.9574 14.8835C20.4205 15.142 19.7609 15.2713 18.9787 15.2713H16.2593V13.7401H18.7301C19.1875 13.7401 19.5621 13.6771 19.8537 13.5511C20.1454 13.4219 20.3608 13.2346 20.5 12.9893C20.6425 12.7408 20.7138 12.4358 20.7138 12.0746C20.7138 11.7133 20.6425 11.4051 20.5 11.1499C20.3575 10.8913 20.1404 10.6958 19.8487 10.5632C19.5571 10.4273 19.1809 10.3594 18.7202 10.3594H17.0299V19H15.1854ZM20.4453 14.3864L22.9659 19H20.9077L18.4318 14.3864H20.4453ZM27.7626 19.1491C26.997 19.1491 26.3358 18.9901 25.779 18.6719C25.2255 18.3504 24.7996 17.8963 24.5013 17.3097C24.203 16.7197 24.0538 16.0253 24.0538 15.2266C24.0538 14.4411 24.203 13.7517 24.5013 13.1584C24.8029 12.5618 25.2238 12.0978 25.764 11.7663C26.3043 11.4316 26.939 11.2642 27.6682 11.2642C28.1388 11.2642 28.5829 11.3404 29.0005 11.4929C29.4215 11.642 29.7927 11.8741 30.1142 12.1889C30.439 12.5038 30.6942 12.9048 30.8798 13.392C31.0654 13.8759 31.1582 14.4527 31.1582 15.1222V15.674H24.899V14.4609H29.4331C29.4298 14.1162 29.3552 13.8097 29.2094 13.5412C29.0635 13.2694 28.8597 13.0556 28.5979 12.8999C28.3393 12.7441 28.0377 12.6662 27.693 12.6662C27.3251 12.6662 27.002 12.7557 26.7236 12.9347C26.4452 13.1103 26.2281 13.3423 26.0723 13.6307C25.9198 13.9157 25.8419 14.2289 25.8386 14.5703V15.6293C25.8386 16.0734 25.9198 16.4545 26.0822 16.7727C26.2446 17.0876 26.4717 17.3295 26.7633 17.4986C27.055 17.6643 27.3964 17.7472 27.7875 17.7472C28.0493 17.7472 28.2863 17.7107 28.4984 17.6378C28.7105 17.5616 28.8945 17.4505 29.0503 17.3047C29.206 17.1589 29.3237 16.9782 29.4032 16.7628L31.0836 16.9517C30.9776 17.3958 30.7754 17.7836 30.4771 18.1151C30.1821 18.4432 29.8043 18.6984 29.3436 18.8807C28.8829 19.0597 28.3559 19.1491 27.7626 19.1491ZM32.9608 11.3636H34.7605V19.4375C34.7605 19.9877 34.6561 20.4418 34.4473 20.7997C34.2385 21.1577 33.9369 21.4245 33.5424 21.6001C33.148 21.7758 32.6691 21.8636 32.1057 21.8636C32.0394 21.8636 31.9781 21.862 31.9217 21.8587C31.8654 21.8587 31.804 21.857 31.7378 21.8537V20.3871C31.7875 20.3904 31.8322 20.392 31.872 20.392C31.9118 20.3954 31.9532 20.397 31.9963 20.397C32.341 20.397 32.5879 20.3125 32.7371 20.1435C32.8862 19.9777 32.9608 19.7341 32.9608 19.4126V11.3636ZM33.8557 10.2798C33.5673 10.2798 33.3204 10.1854 33.1149 9.99645C32.9127 9.80421 32.8116 9.57386 32.8116 9.3054C32.8116 9.03362 32.9127 8.80327 33.1149 8.61435C33.3204 8.42211 33.5673 8.32599 33.8557 8.32599C34.1407 8.32599 34.3843 8.42211 34.5865 8.61435C34.792 8.80327 34.8947 9.03362 34.8947 9.3054C34.8947 9.57386 34.792 9.80421 34.5865 9.99645C34.3843 10.1854 34.1407 10.2798 33.8557 10.2798ZM40.2718 19.1491C39.5062 19.1491 38.845 18.9901 38.2882 18.6719C37.7347 18.3504 37.3088 17.8963 37.0105 17.3097C36.7122 16.7197 36.563 16.0253 36.563 15.2266C36.563 14.4411 36.7122 13.7517 37.0105 13.1584C37.3121 12.5618 37.733 12.0978 38.2733 11.7663C38.8135 11.4316 39.4482 11.2642 40.1774 11.2642C40.648 11.2642 41.0922 11.3404 41.5098 11.4929C41.9307 11.642 42.3019 11.8741 42.6234 12.1889C42.9482 12.5038 43.2034 12.9048 43.389 13.392C43.5746 13.8759 43.6674 14.4527 43.6674 15.1222V15.674H37.4082V14.4609H41.9423C41.939 14.1162 41.8644 13.8097 41.7186 13.5412C41.5727 13.2694 41.3689 13.0556 41.1071 12.8999C40.8485 12.7441 40.5469 12.6662 40.2022 12.6662C39.8343 12.6662 39.5112 12.7557 39.2328 12.9347C38.9544 13.1103 38.7373 13.3423 38.5815 13.6307C38.429 13.9157 38.3512 14.2289 38.3478 14.5703V15.6293C38.3478 16.0734 38.429 16.4545 38.5914 16.7727C38.7539 17.0876 38.9809 17.3295 39.2726 17.4986C39.5642 17.6643 39.9056 17.7472 40.2967 17.7472C40.5585 17.7472 40.7955 17.7107 41.0076 17.6378C41.2198 17.5616 41.4037 17.4505 41.5595 17.3047C41.7153 17.1589 41.8329 16.9782 41.9125 16.7628L43.5929 16.9517C43.4868 17.3958 43.2846 17.7836 42.9863 18.1151C42.6914 18.4432 42.3135 18.6984 41.8528 18.8807C41.3921 19.0597 40.8651 19.1491 40.2718 19.1491ZM48.801 19.1491C48.0386 19.1491 47.3841 18.9818 46.8372 18.647C46.2936 18.3123 45.8743 17.8499 45.5794 17.2599C45.2877 16.6667 45.1419 15.9839 45.1419 15.2116C45.1419 14.4361 45.291 13.7517 45.5893 13.1584C45.8876 12.5618 46.3085 12.0978 46.8521 11.7663C47.399 11.4316 48.0453 11.2642 48.791 11.2642C49.4108 11.2642 49.9593 11.3786 50.4366 11.6072C50.9172 11.8326 51.3 12.1525 51.585 12.5668C51.8701 12.9777 52.0325 13.4583 52.0723 14.0085H50.3521C50.2825 13.6406 50.1168 13.334 49.8549 13.0888C49.5964 12.8402 49.2501 12.7159 48.8159 12.7159C48.448 12.7159 48.1248 12.8153 47.8464 13.0142C47.568 13.2098 47.3509 13.4915 47.1951 13.8594C47.0427 14.2273 46.9664 14.6681 46.9664 15.1818C46.9664 15.7022 47.0427 16.1496 47.1951 16.5241C47.3476 16.8954 47.5614 17.1821 47.8365 17.3842C48.1149 17.5831 48.4413 17.6825 48.8159 17.6825C49.081 17.6825 49.318 17.6328 49.5268 17.5334C49.7389 17.4306 49.9162 17.2831 50.0588 17.0909C50.2013 16.8987 50.2991 16.665 50.3521 16.3899H52.0723C52.0292 16.9302 51.8701 17.4091 51.595 17.8267C51.3199 18.241 50.9454 18.5658 50.4714 18.8011C49.9975 19.0331 49.4406 19.1491 48.801 19.1491ZM57.6433 11.3636V12.7557H53.2534V11.3636H57.6433ZM54.3372 9.53409H56.1369V16.7031C56.1369 16.9451 56.1733 17.1307 56.2463 17.2599C56.3225 17.3859 56.4219 17.4721 56.5446 17.5185C56.6672 17.5649 56.8031 17.5881 56.9522 17.5881C57.0649 17.5881 57.1677 17.5798 57.2605 17.5632C57.3566 17.5466 57.4295 17.5317 57.4792 17.5185L57.7825 18.9254C57.6864 18.9586 57.5488 18.995 57.3698 19.0348C57.1942 19.0746 56.9787 19.0978 56.7235 19.1044C56.2728 19.1177 55.8668 19.0497 55.5055 18.9006C55.1442 18.7481 54.8575 18.5128 54.6454 18.1946C54.4366 17.8764 54.3339 17.4787 54.3372 17.0014V9.53409ZM62.7271 19.1491C61.9615 19.1491 61.3002 18.9901 60.7434 18.6719C60.1899 18.3504 59.764 17.8963 59.4657 17.3097C59.1674 16.7197 59.0183 16.0253 59.0183 15.2266C59.0183 14.4411 59.1674 13.7517 59.4657 13.1584C59.7673 12.5618 60.1883 12.0978 60.7285 11.7663C61.2687 11.4316 61.9035 11.2642 62.6326 11.2642C63.1033 11.2642 63.5474 11.3404 63.965 11.4929C64.3859 11.642 64.7571 11.8741 65.0786 12.1889C65.4035 12.5038 65.6587 12.9048 65.8443 13.392C66.0299 13.8759 66.1227 14.4527 66.1227 15.1222V15.674H59.8634V14.4609H64.3975C64.3942 14.1162 64.3196 13.8097 64.1738 13.5412C64.028 13.2694 63.8241 13.0556 63.5623 12.8999C63.3038 12.7441 63.0022 12.6662 62.6575 12.6662C62.2896 12.6662 61.9664 12.7557 61.688 12.9347C61.4096 13.1103 61.1925 13.3423 61.0367 13.6307C60.8843 13.9157 60.8064 14.2289 60.8031 14.5703V15.6293C60.8031 16.0734 60.8843 16.4545 61.0467 16.7727C61.2091 17.0876 61.4361 17.3295 61.7278 17.4986C62.0195 17.6643 62.3608 17.7472 62.7519 17.7472C63.0138 17.7472 63.2508 17.7107 63.4629 17.6378C63.675 17.5616 63.8589 17.4505 64.0147 17.3047C64.1705 17.1589 64.2882 16.9782 64.3677 16.7628L66.0481 16.9517C65.942 17.3958 65.7399 17.7836 65.4416 18.1151C65.1466 18.4432 64.7687 18.6984 64.308 18.8807C63.8473 19.0597 63.3204 19.1491 62.7271 19.1491ZM70.759 19.1342C70.1591 19.1342 69.6222 18.9801 69.1482 18.6719C68.6743 18.3636 68.2997 17.9162 68.0247 17.3295C67.7496 16.7429 67.612 16.0303 67.612 15.1918C67.612 14.3433 67.7512 13.6274 68.0296 13.044C68.3113 12.4574 68.6908 12.0149 69.1681 11.7166C69.6454 11.415 70.1774 11.2642 70.764 11.2642C71.2114 11.2642 71.5793 11.3404 71.8677 11.4929C72.156 11.642 72.3847 11.8227 72.5538 12.0348C72.7228 12.2436 72.8537 12.4408 72.9465 12.6264H73.0211V8.81818H74.8258V19H73.0559V17.7969H72.9465C72.8537 17.9825 72.7195 18.1797 72.5438 18.3885C72.3682 18.594 72.1362 18.7696 71.8478 18.9155C71.5595 19.0613 71.1965 19.1342 70.759 19.1342ZM71.2612 17.6577C71.6423 17.6577 71.9671 17.5549 72.2356 17.3494C72.5041 17.1406 72.7079 16.8506 72.8471 16.4794C72.9863 16.1082 73.0559 15.6757 73.0559 15.1818C73.0559 14.688 72.9863 14.2588 72.8471 13.8942C72.7112 13.5296 72.509 13.2462 72.2406 13.044C71.9754 12.8419 71.6489 12.7408 71.2612 12.7408C70.8601 12.7408 70.5254 12.8452 70.2569 13.054C69.9884 13.2628 69.7863 13.5511 69.6504 13.919C69.5145 14.2869 69.4465 14.7079 69.4465 15.1818C69.4465 15.6591 69.5145 16.085 69.6504 16.4595C69.7896 16.8307 69.9934 17.1241 70.2619 17.3395C70.5336 17.5516 70.8667 17.6577 71.2612 17.6577Z" fill="#E09A9D"/>
<path d="M100.722 6.50013L108.66 20.2501C108.733 20.3768 108.772 20.5205 108.772 20.6668C108.772 20.8131 108.733 20.9568 108.66 21.0834C108.587 21.2101 108.482 21.3153 108.355 21.3885C108.228 21.4616 108.085 21.5001 107.938 21.5001H92.0616C91.9153 21.5001 91.7716 21.4616 91.6449 21.3885C91.5182 21.3153 91.413 21.2101 91.3399 21.0834C91.2668 20.9568 91.2283 20.8131 91.2283 20.6668C91.2283 20.5205 91.2668 20.3768 91.3399 20.2501L99.2783 6.50013C99.3514 6.37345 99.4566 6.26826 99.5833 6.19513C99.7099 6.122 99.8536 6.0835 99.9999 6.0835C100.146 6.0835 100.29 6.122 100.417 6.19513C100.543 6.26826 100.648 6.37345 100.722 6.50013ZM99.1666 17.3335V19.0001H100.833V17.3335H99.1666ZM99.1666 11.5001V15.6668H100.833V11.5001H99.1666Z" fill="#E09A9D"/>
</svg>
