<svg width="24" height="25" viewBox="0 0 24 25" fill="none" xmlns="http://www.w3.org/2000/svg">
<path d="M19.887 13.031L21.243 14.2385C21.4934 14.4475 21.6607 14.7392 21.7146 15.0608C21.7685 15.3825 21.7055 15.7128 21.537 15.992L19.902 18.785C19.7751 18.9988 19.594 19.1753 19.377 19.2965C19.1574 19.418 18.9109 19.4825 18.66 19.484C18.5043 19.485 18.3495 19.4617 18.201 19.415L16.4655 18.842C16.1615 19.037 15.8455 19.2115 15.5175 19.3655L15.153 21.125C15.0855 21.4487 14.9053 21.7379 14.6445 21.941C14.3803 22.1478 14.0528 22.2569 13.7175 22.25H10.332C9.99658 22.2569 9.6691 22.1478 9.40496 21.941C9.14468 21.7376 8.96502 21.4485 8.89796 21.125L8.53196 19.3655C8.20826 19.2094 7.8942 19.0341 7.59146 18.8405L5.84996 19.415C5.70146 19.4617 5.54661 19.485 5.39096 19.484C5.14055 19.4822 4.89457 19.4178 4.67546 19.2965C4.45862 19.1757 4.27751 18.9998 4.15046 18.7865L2.45696 15.992C2.2809 15.7103 2.21363 15.374 2.26775 15.0462C2.32187 14.7185 2.49368 14.4217 2.75096 14.2115L4.10546 12.5V11.969L2.74946 10.7615C2.49905 10.5525 2.33174 10.2608 2.27781 9.93919C2.22388 9.61754 2.2869 9.28721 2.45546 9.00801L4.14896 6.21501C4.27581 6.00121 4.45693 5.82474 4.67396 5.70351C4.89307 5.58226 5.13905 5.5178 5.38946 5.51601C5.54371 5.50628 5.69854 5.52044 5.84846 5.55801L7.55546 6.15801C7.86046 5.96301 8.17646 5.78851 8.50346 5.63451L8.86946 3.87501C8.93652 3.55156 9.11618 3.2624 9.37646 3.05901C9.6406 2.85223 9.96808 2.74307 10.3035 2.75001H13.6605C13.9958 2.74307 14.3233 2.85223 14.5875 3.05901C14.85 3.26451 15.03 3.55401 15.0945 3.87501L15.4605 5.63451C15.7855 5.78951 16.099 5.96451 16.401 6.15951L18.144 5.58651C18.3374 5.52358 18.5418 5.50148 18.7442 5.52162C18.9467 5.54176 19.1427 5.6037 19.32 5.70351C19.5375 5.82651 19.7175 6.00351 19.845 6.21351L21.537 9.00801C21.7154 9.28734 21.7861 9.62205 21.7358 9.94968C21.6856 10.2773 21.5179 10.5755 21.264 10.7885L19.887 11.9615V13.031Z" stroke="#630A45" stroke-width="2"/>
<path d="M15.75 12.5C15.75 13.4946 15.3549 14.4484 14.6517 15.1517C13.9484 15.8549 12.9946 16.25 12 16.25C11.0054 16.25 10.0516 15.8549 9.34835 15.1517C8.64509 14.4484 8.25 13.4946 8.25 12.5C8.25 11.5054 8.64509 10.5516 9.34835 9.84835C10.0516 9.14509 11.0054 8.75 12 8.75C12.9946 8.75 13.9484 9.14509 14.6517 9.84835C15.3549 10.5516 15.75 11.5054 15.75 12.5Z" stroke="#630A45" stroke-width="2"/>
</svg>
