<svg width="20" height="20" viewBox="0 0 20 20" fill="none" xmlns="http://www.w3.org/2000/svg">
<path d="M10.0001 18.3332C5.39758 18.3332 1.66675 14.6023 1.66675 9.99984C1.66675 5.39734 5.39758 1.6665 10.0001 1.6665C14.6026 1.6665 18.3334 5.39734 18.3334 9.99984C18.3334 14.6023 14.6026 18.3332 10.0001 18.3332ZM10.0001 16.6665C11.7682 16.6665 13.4639 15.9641 14.7141 14.7139C15.9644 13.4636 16.6667 11.7679 16.6667 9.99984C16.6667 8.23173 15.9644 6.53603 14.7141 5.28579C13.4639 4.03555 11.7682 3.33317 10.0001 3.33317C8.23197 3.33317 6.53628 4.03555 5.28604 5.28579C4.03579 6.53603 3.33341 8.23173 3.33341 9.99984C3.33341 11.7679 4.03579 13.4636 5.28604 14.7139C6.53628 15.9641 8.23197 16.6665 10.0001 16.6665ZM9.16675 12.4998H10.8334V14.1665H9.16675V12.4998ZM10.8334 11.129V11.6665H9.16675V10.4165C9.16675 10.1955 9.25455 9.98353 9.41083 9.82725C9.56711 9.67097 9.77907 9.58317 10.0001 9.58317C10.2368 9.58316 10.4687 9.51592 10.6687 9.38928C10.8687 9.26264 11.0286 9.08181 11.1299 8.86782C11.2311 8.65384 11.2696 8.4155 11.2406 8.18054C11.2117 7.94558 11.1167 7.72366 10.9666 7.5406C10.8165 7.35754 10.6175 7.22086 10.3928 7.14648C10.168 7.07209 9.92678 7.06306 9.6971 7.12042C9.46743 7.17779 9.25876 7.2992 9.09539 7.47052C8.93201 7.64184 8.82065 7.85603 8.77425 8.08817L7.13925 7.76067C7.24061 7.25407 7.47467 6.78348 7.81751 6.39699C8.16036 6.01051 8.59968 5.72199 9.09057 5.56094C9.58146 5.39989 10.1063 5.37208 10.6115 5.48035C11.1166 5.58862 11.584 5.8291 11.9658 6.17719C12.3475 6.52528 12.63 6.96851 12.7843 7.46156C12.9387 7.9546 12.9593 8.47979 12.8441 8.98343C12.729 9.48706 12.4821 9.95109 12.1288 10.3281C11.7756 10.705 11.3285 10.9814 10.8334 11.129Z" fill="black"/>
</svg>
