<svg width="119" height="28" viewBox="0 0 119 28" fill="none" xmlns="http://www.w3.org/2000/svg">
<rect x="1" y="1" width="117" height="26" rx="4" fill="#CCE0F9" stroke="#B8CEEA" stroke-width="2"/>
<path d="M17.069 10.3643V8.81818H25.1926V10.3643H22.0456V19H20.216V10.3643H17.069ZM26.1661 19V11.3636H27.9111V12.6364H27.9907C28.1299 12.1955 28.3685 11.8558 28.7066 11.6172C29.048 11.3752 29.4374 11.2543 29.8749 11.2543C29.9744 11.2543 30.0854 11.2592 30.208 11.2692C30.334 11.2758 30.4384 11.2874 30.5212 11.304V12.9595C30.445 12.933 30.324 12.9098 30.1583 12.8899C29.9959 12.8667 29.8385 12.8551 29.686 12.8551C29.3579 12.8551 29.0629 12.9264 28.8011 13.0689C28.5425 13.2081 28.3387 13.402 28.1896 13.6506C28.0404 13.8991 27.9658 14.1858 27.9658 14.5107V19H26.1661ZM34.0576 19.1541C33.5737 19.1541 33.1379 19.0679 32.7501 18.8956C32.3656 18.7199 32.0607 18.4614 31.8353 18.12C31.6133 17.7786 31.5022 17.3577 31.5022 16.8572C31.5022 16.4264 31.5818 16.0701 31.7409 15.7884C31.9 15.5066 32.1171 15.2812 32.3921 15.1122C32.6672 14.9432 32.9771 14.8156 33.3218 14.7294C33.6698 14.6399 34.0295 14.5753 34.4007 14.5355C34.8481 14.4891 35.211 14.4477 35.4894 14.4112C35.7679 14.3714 35.97 14.3118 36.096 14.2322C36.2252 14.1494 36.2899 14.0218 36.2899 13.8494V13.8196C36.2899 13.4451 36.1788 13.1551 35.9568 12.9496C35.7347 12.7441 35.4149 12.6413 34.9973 12.6413C34.5564 12.6413 34.2068 12.7375 33.9483 12.9297C33.693 13.1219 33.5207 13.349 33.4312 13.6108L31.7508 13.3722C31.8834 12.9081 32.1021 12.5204 32.4071 12.2088C32.712 11.8939 33.0849 11.6586 33.5257 11.5028C33.9665 11.3438 34.4537 11.2642 34.9873 11.2642C35.3552 11.2642 35.7215 11.3073 36.086 11.3935C36.4506 11.4796 36.7837 11.6222 37.0853 11.821C37.3869 12.0166 37.6289 12.2834 37.8112 12.6214C37.9968 12.9595 38.0896 13.3821 38.0896 13.8892V19H36.3595V17.951H36.2998C36.1904 18.1631 36.0363 18.362 35.8375 18.5476C35.6419 18.7299 35.395 18.8774 35.0967 18.9901C34.8017 19.0994 34.4554 19.1541 34.0576 19.1541ZM34.525 17.8317C34.8862 17.8317 35.1994 17.7604 35.4646 17.6179C35.7297 17.4721 35.9336 17.2798 36.0761 17.0412C36.2219 16.8026 36.2948 16.5424 36.2948 16.2607V15.3608C36.2385 15.4072 36.1424 15.4503 36.0065 15.4901C35.8739 15.5298 35.7248 15.5646 35.5591 15.5945C35.3933 15.6243 35.2293 15.6508 35.0669 15.674C34.9045 15.6972 34.7636 15.7171 34.6443 15.7337C34.3758 15.7701 34.1355 15.8298 33.9234 15.9126C33.7113 15.9955 33.5439 16.1115 33.4213 16.2607C33.2986 16.4065 33.2373 16.5954 33.2373 16.8274C33.2373 17.1589 33.3583 17.4091 33.6002 17.5781C33.8422 17.7472 34.1504 17.8317 34.525 17.8317ZM40.1792 19V11.3636H41.979V19H40.1792ZM41.0841 10.2798C40.799 10.2798 40.5538 10.1854 40.3483 9.99645C40.1428 9.80421 40.04 9.57386 40.04 9.3054C40.04 9.03362 40.1428 8.80327 40.3483 8.61435C40.5538 8.42211 40.799 8.32599 41.0841 8.32599C41.3724 8.32599 41.6177 8.42211 41.8199 8.61435C42.0254 8.80327 42.1281 9.03362 42.1281 9.3054C42.1281 9.57386 42.0254 9.80421 41.8199 9.99645C41.6177 10.1854 41.3724 10.2798 41.0841 10.2798ZM45.9094 14.5256V19H44.1096V11.3636H45.8298V12.6612H45.9193C46.095 12.2337 46.375 11.8939 46.7595 11.642C47.1473 11.3902 47.6262 11.2642 48.1963 11.2642C48.7233 11.2642 49.1823 11.3769 49.5734 11.6023C49.9678 11.8277 50.2728 12.1541 50.4882 12.5817C50.7069 13.0092 50.8147 13.5279 50.8113 14.1378V19H49.0116V14.4162C49.0116 13.9058 48.8791 13.5064 48.6139 13.218C48.3521 12.9297 47.9891 12.7855 47.5251 12.7855C47.2103 12.7855 46.9302 12.8551 46.6849 12.9943C46.443 13.1302 46.2524 13.3274 46.1132 13.5859C45.9773 13.8445 45.9094 14.1577 45.9094 14.5256ZM52.9209 19V11.3636H54.7206V19H52.9209ZM53.8257 10.2798C53.5407 10.2798 53.2954 10.1854 53.0899 9.99645C52.8844 9.80421 52.7817 9.57386 52.7817 9.3054C52.7817 9.03362 52.8844 8.80327 53.0899 8.61435C53.2954 8.42211 53.5407 8.32599 53.8257 8.32599C54.1141 8.32599 54.3593 8.42211 54.5615 8.61435C54.767 8.80327 54.8698 9.03362 54.8698 9.3054C54.8698 9.57386 54.767 9.80421 54.5615 9.99645C54.3593 10.1854 54.1141 10.2798 53.8257 10.2798ZM58.651 14.5256V19H56.8513V11.3636H58.5714V12.6612H58.6609C58.8366 12.2337 59.1167 11.8939 59.5011 11.642C59.8889 11.3902 60.3679 11.2642 60.9379 11.2642C61.4649 11.2642 61.924 11.3769 62.3151 11.6023C62.7095 11.8277 63.0144 12.1541 63.2298 12.5817C63.4486 13.0092 63.5563 13.5279 63.553 14.1378V19H61.7533V14.4162C61.7533 13.9058 61.6207 13.5064 61.3555 13.218C61.0937 12.9297 60.7308 12.7855 60.2668 12.7855C59.9519 12.7855 59.6718 12.8551 59.4266 12.9943C59.1846 13.1302 58.994 13.3274 58.8548 13.5859C58.7189 13.8445 58.651 14.1577 58.651 14.5256ZM68.9835 22.0227C68.3372 22.0227 67.7821 21.9349 67.3181 21.7592C66.854 21.5869 66.4812 21.3549 66.1995 21.0632C65.9177 20.7715 65.7222 20.4484 65.6128 20.0938L67.2335 19.701C67.3065 19.8501 67.4125 19.9976 67.5517 20.1435C67.6909 20.2926 67.8782 20.4152 68.1135 20.5114C68.3522 20.6108 68.6521 20.6605 69.0134 20.6605C69.5238 20.6605 69.9464 20.5362 70.2811 20.2876C70.6159 20.0424 70.7833 19.638 70.7833 19.0746V17.6278H70.6938C70.601 17.8134 70.4651 18.004 70.2861 18.1996C70.1104 18.3951 69.8768 18.5592 69.5851 18.6918C69.2968 18.8243 68.9338 18.8906 68.4963 18.8906C67.9097 18.8906 67.3777 18.7531 66.9005 18.478C66.4265 18.1996 66.0487 17.7853 65.7669 17.2351C65.4885 16.6816 65.3493 15.9889 65.3493 15.157C65.3493 14.3184 65.4885 13.6108 65.7669 13.0341C66.0487 12.4541 66.4281 12.0149 66.9054 11.7166C67.3827 11.415 67.9147 11.2642 68.5013 11.2642C68.9487 11.2642 69.3166 11.3404 69.605 11.4929C69.8967 11.642 70.1287 11.8227 70.301 12.0348C70.4734 12.2436 70.6043 12.4408 70.6938 12.6264H70.7932V11.3636H72.5681V19.1243C72.5681 19.7772 72.4123 20.3175 72.1007 20.745C71.7892 21.1726 71.3633 21.4924 70.823 21.7045C70.2828 21.9167 69.6696 22.0227 68.9835 22.0227ZM68.9985 17.4787C69.3796 17.4787 69.7044 17.3859 69.9729 17.2003C70.2414 17.0147 70.4452 16.7479 70.5844 16.3999C70.7236 16.0518 70.7932 15.6342 70.7932 15.147C70.7932 14.6664 70.7236 14.2455 70.5844 13.8842C70.4485 13.523 70.2463 13.2429 69.9779 13.044C69.7127 12.8419 69.3862 12.7408 68.9985 12.7408C68.5974 12.7408 68.2627 12.8452 67.9942 13.054C67.7257 13.2628 67.5236 13.5495 67.3877 13.9141C67.2518 14.2753 67.1838 14.6863 67.1838 15.147C67.1838 15.6143 67.2518 16.0237 67.3877 16.375C67.5269 16.723 67.7307 16.9948 67.9992 17.1903C68.271 17.3826 68.604 17.4787 68.9985 17.4787Z" fill="#9FB9DB"/>
<path fill-rule="evenodd" clip-rule="evenodd" d="M104.506 11.7469L106.691 12.1039C106.777 12.1186 106.855 12.1632 106.912 12.2298C106.968 12.2965 107 12.3809 107 12.4683V14.5009C106.999 14.5876 106.968 14.6714 106.913 14.7378C106.857 14.8042 106.779 14.8489 106.694 14.8643L104.507 15.2489C104.381 15.6865 104.206 16.1088 103.987 16.5079L105.28 18.3036C105.331 18.375 105.355 18.4621 105.348 18.5496C105.341 18.6371 105.303 18.7193 105.242 18.7817L103.804 20.2182C103.742 20.2793 103.662 20.3169 103.575 20.3247C103.489 20.3325 103.403 20.3098 103.331 20.2607L101.517 18.9878C101.117 19.2109 100.694 19.388 100.25 19.5191L99.8643 21.6951C99.8486 21.7804 99.8036 21.8576 99.7371 21.9133C99.6705 21.969 99.5866 21.9997 99.4998 22H97.4672C97.38 21.9995 97.2957 21.9684 97.2291 21.9121C97.1625 21.8558 97.1178 21.7778 97.1028 21.6919L96.7416 19.5254C96.2999 19.3965 95.8735 19.2202 95.4697 18.9995L93.6699 20.2596C93.5986 20.3093 93.5122 20.3325 93.4256 20.3251C93.3391 20.3177 93.2578 20.2803 93.196 20.2192L91.7584 18.7806C91.6972 18.7184 91.6598 18.6366 91.6528 18.5496C91.6458 18.4625 91.6697 18.3758 91.7202 18.3046L92.992 16.526C92.769 16.1201 92.5908 15.6912 92.4608 15.2467L90.3049 14.8643C90.2198 14.8487 90.1427 14.8038 90.087 14.7375C90.0313 14.6712 90.0006 14.5875 90 14.5009V12.4683C90 12.2877 90.1307 12.1336 90.3081 12.1039L92.465 11.7447C92.5946 11.2985 92.7717 10.8724 92.9963 10.4666L91.7383 8.66881C91.689 8.59752 91.6662 8.51126 91.6737 8.42494C91.6813 8.33861 91.7188 8.25764 91.7797 8.196L93.2162 6.7595C93.3437 6.632 93.5456 6.615 93.6922 6.72019L95.4772 7.99519C95.8807 7.77603 96.3068 7.60112 96.7479 7.4735L97.1017 5.31025C97.1163 5.22373 97.1609 5.14514 97.2278 5.08836C97.2947 5.03159 97.3795 5.00029 97.4672 5H99.4998C99.6804 5 99.8334 5.12963 99.8643 5.306L100.246 7.48094C100.688 7.60985 101.11 7.78587 101.513 8.009L103.304 6.72231C103.375 6.67123 103.462 6.64705 103.55 6.65405C103.637 6.66105 103.719 6.69878 103.782 6.76056L105.218 8.19706C105.346 8.32456 105.363 8.52431 105.26 8.67094L103.985 10.4878C104.204 10.888 104.379 11.3077 104.506 11.7469ZM95.9128 13.5C95.9128 13.8398 95.9797 14.1762 96.1097 14.4901C96.2398 14.804 96.4303 15.0892 96.6706 15.3294C96.9108 15.5697 97.196 15.7602 97.5099 15.8903C97.8238 16.0203 98.1602 16.0872 98.5 16.0872C98.8398 16.0872 99.1762 16.0203 99.4901 15.8903C99.804 15.7602 100.089 15.5697 100.329 15.3294C100.57 15.0892 100.76 14.804 100.89 14.4901C101.02 14.1762 101.087 13.8398 101.087 13.5C101.087 12.8138 100.815 12.1558 100.329 11.6706C99.8442 11.1854 99.1862 10.9128 98.5 10.9128C97.8138 10.9128 97.1558 11.1854 96.6706 11.6706C96.1854 12.1558 95.9128 12.8138 95.9128 13.5Z" fill="#9FB9DB"/>
</svg>
